<svg width="1166" height="358" viewBox="0 0 1166 358" fill="none" xmlns="http://www.w3.org/2000/svg">
<rect x="2" y="2" width="1162" height="354" rx="22" fill="#FCFFE7"/>
<path d="M298.334 212H308.354V183.75C308.354 176.143 312.946 170.855 319.858 170.855C326.909 170.855 330.991 175.679 330.991 183.75V212H341.01V181.849C341.01 170.066 334.145 162.273 323.708 162.273C316.425 162.273 311.184 165.567 308.586 171.226H308.354V145.064H298.334V212ZM371.579 212.974C383.408 212.974 390.922 205.923 392.5 198.177L392.592 197.667H383.083L382.944 198.038C381.691 201.702 377.749 204.764 371.811 204.764C363.833 204.764 358.776 199.383 358.591 190.152H393.149V186.766C393.149 172.107 384.753 162.273 371.069 162.273C357.385 162.273 348.571 172.479 348.571 187.74V187.786C348.571 203.187 357.246 212.974 371.579 212.974ZM371.115 170.484C377.656 170.484 382.387 174.612 383.222 183.055H358.73C359.611 174.891 364.621 170.484 371.115 170.484ZM404.838 228.282C414.394 228.282 419.497 224.385 423.115 214.273L441.298 163.201H430.722L418.43 202.908H418.105L405.812 163.201H394.958L412.724 212.046L411.889 214.366C410.219 219.097 407.622 220.35 402.89 220.35C401.545 220.35 400.385 220.164 399.597 219.979V227.818C400.803 228.05 402.89 228.282 404.838 228.282ZM437.355 225.452H444.406L451.179 201.702H441.159L437.355 225.452ZM477.202 212H487.592V145.064H477.202V212ZM497.519 168.814H504.57L511.342 145.064H501.323L497.519 168.814ZM516.445 212H526.464V181.849C526.464 175.54 530.686 170.855 536.623 170.855C542.282 170.855 545.854 174.473 545.854 180.132V212H555.688V181.478C555.688 175.308 559.816 170.855 565.754 170.855C571.691 170.855 575.078 174.52 575.078 180.875V212H585.144V178.462C585.144 168.675 578.835 162.273 569.187 162.273C562.229 162.273 556.477 165.938 553.972 171.875H553.74C551.792 165.752 546.875 162.273 540.148 162.273C533.747 162.273 528.784 165.66 526.696 170.762H526.464V163.201H516.445V212ZM634.963 212.974C646.792 212.974 654.306 205.923 655.883 198.177L655.976 197.667H646.467L646.328 198.038C645.075 201.702 641.132 204.764 635.195 204.764C627.216 204.764 622.16 199.383 621.975 190.152H656.533V186.766C656.533 172.107 648.137 162.273 634.453 162.273C620.769 162.273 611.955 172.479 611.955 187.74V187.786C611.955 203.187 620.629 212.974 634.963 212.974ZM634.499 170.484C641.04 170.484 645.771 174.612 646.606 183.055H622.114C622.995 174.891 628.005 170.484 634.499 170.484ZM664.697 212H674.716V145.064H664.697V212ZM694.616 212H704.96L715.119 175.447H715.351L725.603 212H736.04L749.399 163.201H739.472L730.566 201.609H730.334L720.129 163.201H710.48L700.322 201.609H700.136L691.23 163.201H681.21L694.616 212ZM761.552 228.282C771.108 228.282 776.21 224.385 779.829 214.273L798.012 163.201H787.436L775.144 202.908H774.819L762.526 163.201H751.672L769.438 212.046L768.603 214.366C766.933 219.097 764.335 220.35 759.604 220.35C758.259 220.35 757.099 220.164 756.311 219.979V227.818C757.517 228.05 759.604 228.282 761.552 228.282ZM803.857 212H813.876V183.565C813.876 175.958 818.422 170.855 825.473 170.855C832.431 170.855 835.864 174.983 835.864 182.312V212H845.93V180.411C845.93 169.185 839.76 162.273 829.045 162.273C821.669 162.273 816.66 165.613 814.108 170.577H813.876V163.201H803.857V212ZM861.33 212.696C864.716 212.696 867.407 210.005 867.407 206.619C867.407 203.187 864.716 200.542 861.33 200.542C857.897 200.542 855.207 203.187 855.207 206.619C855.207 210.005 857.897 212.696 861.33 212.696Z" fill="#303030"/>
<path d="M1019.09 316.234V318.54C1019.65 318.474 1020.52 318.453 1021 318.453H1032.92C1033.55 318.453 1034.27 318.474 1034.85 318.54V316.234C1034.29 316.3 1033.57 316.365 1032.92 316.365H1021C1020.5 316.365 1019.65 316.321 1019.09 316.234ZM1025.66 329.217H1027.94V317.539H1025.66V329.217ZM1017.74 327.89V330.304C1018.44 330.239 1019.13 330.217 1019.74 330.217H1034.09C1034.55 330.217 1035.4 330.217 1035.98 330.304V327.89C1035.42 327.956 1034.79 328.043 1034.09 328.043H1019.74C1019.11 328.043 1018.39 327.999 1017.74 327.89ZM1048.97 330.543L1050.36 331.696C1050.53 331.565 1050.77 331.37 1051.16 331.152C1053.66 329.891 1056.73 327.629 1058.58 325.15L1057.32 323.345C1055.73 325.672 1053.23 327.564 1051.32 328.412C1051.32 327.521 1051.32 317.8 1051.32 316.3C1051.32 315.408 1051.4 314.712 1051.42 314.582H1048.99C1048.99 314.712 1049.12 315.408 1049.12 316.278C1049.12 317.8 1049.12 328.13 1049.12 329.195C1049.12 329.673 1049.05 330.174 1048.97 330.543ZM1038.96 330.369L1040.96 331.696C1042.81 330.13 1044.18 327.999 1044.84 325.629C1045.42 323.454 1045.51 318.822 1045.51 316.343C1045.51 315.604 1045.6 314.843 1045.62 314.647H1043.18C1043.29 315.125 1043.36 315.647 1043.36 316.365C1043.36 318.866 1043.36 323.128 1042.73 325.063C1042.07 327.086 1040.83 329.043 1038.96 330.369ZM1071.5 313.473H1068.95C1069.06 314.234 1069.08 314.712 1069.08 315.234C1069.08 315.756 1069.08 317.344 1069.08 318.213H1071.34C1071.34 317.431 1071.34 315.756 1071.34 315.234C1071.34 314.712 1071.39 314.234 1071.5 313.473ZM1078.87 317.822L1077.43 316.93C1077.13 317.039 1076.67 317.126 1075.82 317.126H1064.34C1063.54 317.126 1062.91 317.104 1062.23 317.039C1062.32 317.518 1062.32 318.3 1062.32 318.779C1062.32 319.562 1062.32 321.888 1062.32 322.584C1062.32 323.063 1062.3 323.693 1062.23 324.128H1064.54C1064.47 323.759 1064.45 323.15 1064.45 322.715C1064.45 322.062 1064.45 319.931 1064.45 319.083H1076.11C1075.89 320.975 1075.24 323.389 1074.11 325.15C1072.8 327.107 1070.58 328.608 1068.54 329.304C1067.78 329.587 1066.82 329.847 1065.99 330L1067.71 331.979C1071.65 330.913 1074.76 328.673 1076.41 325.672C1077.58 323.65 1078.19 321.149 1078.52 319.279C1078.58 318.866 1078.74 318.192 1078.87 317.822ZM1083.76 325.194L1084.76 327.151C1087.5 326.303 1090.65 324.868 1092.52 323.759C1094.81 322.367 1097.22 320.431 1098.48 319.061L1096.85 317.452C1095.72 318.844 1093.65 320.692 1091.59 321.954C1089.83 323.041 1086.61 324.541 1083.76 325.194ZM1091.35 323.215V330.717C1091.35 331.413 1091.31 332.413 1091.26 332.783H1093.7C1093.61 332.413 1093.59 331.413 1093.59 330.717V322.715L1091.35 323.215ZM1108.03 314.864L1106.48 316.495C1108.09 317.583 1110.81 319.931 1111.92 321.084L1113.57 319.388C1112.36 318.148 1109.55 315.887 1108.03 314.864ZM1105.83 329.391L1107.25 331.565C1110.66 330.957 1113.42 329.673 1115.62 328.304C1118.99 326.238 1121.64 323.258 1123.19 320.453L1121.9 318.17C1120.6 320.953 1117.88 324.194 1114.4 326.346C1112.31 327.629 1109.51 328.869 1105.83 329.391Z" fill="#303030"/>
<rect x="2" y="2" width="1162" height="354" rx="22" stroke="#303030" stroke-width="4"/>
</svg>
